<?xml version="1.0" encoding="UTF-8"?>
<svg version="1.1" xmlns="http://www.w3.org/2000/svg" width="200" height="200">
<path d="M0 0 C66 0 132 0 200 0 C200 66 200 132 200 200 C134 200 68 200 0 200 C0 134 0 68 0 0 Z " fill="#218B87" transform="translate(0,0)"/>
<path d="M0 0 C4.64070415 0.4969175 7.04659541 2.3247146 10.5625 5.3125 C11.49191406 6.09238281 12.42132813 6.87226562 13.37890625 7.67578125 C15.68317597 9.71906066 17.93182613 11.71770931 20 14 C20 14.66 20 15.32 20 16 C20.969375 15.938125 21.93875 15.87625 22.9375 15.8125 C31.30517926 15.89668188 36.95389505 19.19084768 42.96484375 24.8203125 C44.82913078 26.81699611 46.26323864 28.78131989 47.75 31.0625 C51.62621854 36.65532961 58.01687533 39.15934734 64 42 C63.835 42.763125 63.67 43.52625 63.5 44.3125 C62.90854604 47.03596236 62.90854604 47.03596236 63 50 C56.49225444 54.27458504 49.39124732 53.37836651 41.85351562 53.26367188 C35.52395417 53.33869475 31.81377327 53.92623074 27.20483398 58.41870117 C24.39344271 62.10854541 24.49877565 66.56675705 25 71 C26.72967713 74.74547604 26.72967713 74.74547604 30 77 C29.505 76.2265625 29.505 76.2265625 29 75.4375 C27.67989123 72.21973488 27.86757895 69.4429472 28 66 C29.66015625 67.23697917 31.3203125 68.47395833 32.98046875 69.7109375 C36.99715094 72.2747772 41.19986208 73.34728251 45.8125 74.375 C55.75455981 76.82396326 62.9490461 81.01421059 69.4375 89 C72.61486355 95.23039549 72.11311922 103.36512395 70.1171875 109.8828125 C64.5639737 121.90864635 54.7916912 127.17625577 42.76171875 131.64453125 C37.71886586 133.27511005 32.9579273 133.49837394 27.6875 133.4375 C26.76541748 133.42992676 25.84333496 133.42235352 24.89331055 133.41455078 C12.39727562 133.11344151 1.57617111 128.84548543 -7.8125 120.5 C-8.8953125 119.2625 -8.8953125 119.2625 -10 118 C-10.86625 117.05125 -11.7325 116.1025 -12.625 115.125 C-15.23022211 111.69707617 -16.64347095 109.06958715 -18 105 C-17.5703125 102.7890625 -17.5703125 102.7890625 -17 101 C-15.96939453 101.52400391 -15.96939453 101.52400391 -14.91796875 102.05859375 C-14.01691406 102.51363281 -13.11585937 102.96867187 -12.1875 103.4375 C-11.29417969 103.88996094 -10.40085937 104.34242188 -9.48046875 104.80859375 C-1.70096155 108.54520744 9.69609742 108.63819327 17.9140625 105.87109375 C23.416564 103.53466573 28.55786347 100.69826214 33.75 97.75 C38.69857631 94.94114985 43.37902715 93.70719398 49 93 C42.69665532 90.89888511 35.85893192 90.71520288 29.7578125 93.45703125 C27.72545863 94.68523493 25.71288437 95.94683481 23.72265625 97.2421875 C18.70472972 100.48188182 13.05554564 103.15957257 7 102 C0.67554437 98.27308865 -3.44168608 91.97270875 -5.61328125 85.04296875 C-7.40729998 75.56547587 -5.51199951 67.00572697 -0.6796875 58.7421875 C6.38887175 48.58354771 15.25543075 45.14366895 27 43 C16.91170708 42.19413045 9.38831299 43.06384218 1 49 C-7.79406504 56.97006541 -10.80117883 64.67516206 -11.5625 76.3125 C-11.64628906 77.56675781 -11.73007812 78.82101563 -11.81640625 80.11328125 C-11.90728516 81.54220703 -11.90728516 81.54220703 -12 83 C-18.43815714 75.39126884 -17.74705927 65.74637084 -17.22949219 56.33105469 C-16.17429839 45.61297983 -9.51392113 35.51392113 -2 28 C-2.23836824 25.88873841 -2.47891103 23.77769945 -2.73046875 21.66796875 C-3.53729957 13.681513 -3.33450638 7.3637016 0 0 Z " fill="#FBFCFC" transform="translate(75,34)"/>
<path d="M0 0 C3.5735446 1.96884409 6.15748506 3.96787475 8.8125 7.0625 C9.71935547 8.10083984 9.71935547 8.10083984 10.64453125 9.16015625 C12 11 12 11 12 13 C10.01310269 14.35278115 8.01254782 15.68568305 6 17 C5.67 17.66 5.34 18.32 5 19 C4.34 19 3.68 19 3 19 C-1.0449982 13.10104429 -0.27748976 6.92696672 0 0 Z " fill="#298F8B" transform="translate(78,42)"/>
<path d="M0 0 C5.71658336 -0.45732667 8.48649253 0.47726246 13 4 C12.67 4.66 12.34 5.32 12 6 C10.18447022 5.38385645 8.3726347 4.75681772 6.5625 4.125 C5.55316406 3.77695313 4.54382813 3.42890625 3.50390625 3.0703125 C1 2 1 2 0 0 Z " fill="#469D99" transform="translate(104,65)"/>
</svg>
